<mxfile host="app.diagrams.net" modified="2022-10-04T03:07:25.686Z" agent="5.0 (Windows NT 10.0; Win64; x64) AppleWebKit/537.36 (KHTML, like Gecko) Chrome/105.0.0.0 Safari/537.36" etag="vg-SjIFNbIF_veSzaS7G" version="20.2.7" type="github">
  <diagram id="kgpKYQtTHZ0yAKxKKP6v" name="Page-1">
    <mxGraphModel dx="950" dy="403" grid="1" gridSize="10" guides="1" tooltips="1" connect="1" arrows="1" fold="1" page="1" pageScale="1" pageWidth="850" pageHeight="1100" math="0" shadow="0">
      <root>
        <mxCell id="0" />
        <mxCell id="1" parent="0" />
        <mxCell id="3nuBFxr9cyL0pnOWT2aG-1" value="Google Authorized Buyers" style="shape=umlLifeline;perimeter=lifelinePerimeter;container=1;collapsible=0;recursiveResize=0;rounded=0;shadow=0;strokeWidth=1;" parent="1" vertex="1">
          <mxGeometry x="120" y="80" width="160" height="300" as="geometry" />
        </mxCell>
        <mxCell id="3nuBFxr9cyL0pnOWT2aG-2" value="" style="points=[];perimeter=orthogonalPerimeter;rounded=0;shadow=0;strokeWidth=1;" parent="3nuBFxr9cyL0pnOWT2aG-1" vertex="1">
          <mxGeometry x="45" y="70" width="10" height="190" as="geometry" />
        </mxCell>
        <mxCell id="3nuBFxr9cyL0pnOWT2aG-3" value="dispatch" style="verticalAlign=bottom;startArrow=oval;endArrow=block;startSize=8;shadow=0;strokeWidth=1;" parent="3nuBFxr9cyL0pnOWT2aG-1" target="3nuBFxr9cyL0pnOWT2aG-2" edge="1">
          <mxGeometry relative="1" as="geometry">
            <mxPoint x="-15" y="70" as="sourcePoint" />
          </mxGeometry>
        </mxCell>
        <mxCell id="3nuBFxr9cyL0pnOWT2aG-4" value="" style="points=[];perimeter=orthogonalPerimeter;rounded=0;shadow=0;strokeWidth=1;" parent="3nuBFxr9cyL0pnOWT2aG-1" vertex="1">
          <mxGeometry x="50" y="120" width="10" height="80" as="geometry" />
        </mxCell>
        <mxCell id="3nuBFxr9cyL0pnOWT2aG-5" value="DSP Server" style="shape=umlLifeline;perimeter=lifelinePerimeter;container=1;collapsible=0;recursiveResize=0;rounded=0;shadow=0;strokeWidth=1;" parent="1" vertex="1">
          <mxGeometry x="340" y="80" width="100" height="300" as="geometry" />
        </mxCell>
        <mxCell id="3nuBFxr9cyL0pnOWT2aG-6" value="" style="points=[];perimeter=orthogonalPerimeter;rounded=0;shadow=0;strokeWidth=1;" parent="3nuBFxr9cyL0pnOWT2aG-5" vertex="1">
          <mxGeometry x="45" y="80" width="10" height="160" as="geometry" />
        </mxCell>
        <mxCell id="3nuBFxr9cyL0pnOWT2aG-7" value="return" style="verticalAlign=bottom;endArrow=open;dashed=1;endSize=8;exitX=0;exitY=0.95;shadow=0;strokeWidth=1;" parent="1" source="3nuBFxr9cyL0pnOWT2aG-6" target="3nuBFxr9cyL0pnOWT2aG-2" edge="1">
          <mxGeometry relative="1" as="geometry">
            <mxPoint x="275" y="236" as="targetPoint" />
          </mxGeometry>
        </mxCell>
        <mxCell id="3nuBFxr9cyL0pnOWT2aG-8" value="Send BidRequest" style="verticalAlign=bottom;endArrow=block;entryX=0;entryY=0;shadow=0;strokeWidth=1;" parent="1" source="3nuBFxr9cyL0pnOWT2aG-2" target="3nuBFxr9cyL0pnOWT2aG-6" edge="1">
          <mxGeometry relative="1" as="geometry">
            <mxPoint x="275" y="160" as="sourcePoint" />
          </mxGeometry>
        </mxCell>
        <mxCell id="3nuBFxr9cyL0pnOWT2aG-9" value="Return BidResponse" style="verticalAlign=bottom;endArrow=block;entryX=1;entryY=0;shadow=0;strokeWidth=1;" parent="1" source="3nuBFxr9cyL0pnOWT2aG-6" target="3nuBFxr9cyL0pnOWT2aG-4" edge="1">
          <mxGeometry relative="1" as="geometry">
            <mxPoint x="240" y="200" as="sourcePoint" />
          </mxGeometry>
        </mxCell>
        <mxCell id="3nuBFxr9cyL0pnOWT2aG-10" value="Send Win Notice" style="verticalAlign=bottom;endArrow=open;dashed=1;endSize=8;exitX=1;exitY=0.95;shadow=0;strokeWidth=1;" parent="1" source="3nuBFxr9cyL0pnOWT2aG-4" target="3nuBFxr9cyL0pnOWT2aG-6" edge="1">
          <mxGeometry relative="1" as="geometry">
            <mxPoint x="240" y="257" as="targetPoint" />
          </mxGeometry>
        </mxCell>
        <mxCell id="cC8-oieJ7pAEB4GXrQRQ-1" value="Kafka" style="shape=umlLifeline;perimeter=lifelinePerimeter;container=1;collapsible=0;recursiveResize=0;rounded=0;shadow=0;strokeWidth=1;" vertex="1" parent="1">
          <mxGeometry x="480" y="80" width="100" height="300" as="geometry" />
        </mxCell>
        <mxCell id="cC8-oieJ7pAEB4GXrQRQ-2" value="" style="points=[];perimeter=orthogonalPerimeter;rounded=0;shadow=0;strokeWidth=1;" vertex="1" parent="cC8-oieJ7pAEB4GXrQRQ-1">
          <mxGeometry x="45" y="90" width="10" height="160" as="geometry" />
        </mxCell>
        <mxCell id="cC8-oieJ7pAEB4GXrQRQ-3" value="Send Data" style="verticalAlign=bottom;endArrow=block;shadow=0;strokeWidth=1;entryX=0.019;entryY=-0.004;entryDx=0;entryDy=0;entryPerimeter=0;" edge="1" parent="cC8-oieJ7pAEB4GXrQRQ-1" target="cC8-oieJ7pAEB4GXrQRQ-2">
          <mxGeometry relative="1" as="geometry">
            <mxPoint x="-85" y="90" as="sourcePoint" />
            <mxPoint x="40" y="90" as="targetPoint" />
          </mxGeometry>
        </mxCell>
        <mxCell id="cC8-oieJ7pAEB4GXrQRQ-5" value="Send Data" style="verticalAlign=bottom;endArrow=block;shadow=0;strokeWidth=1;entryX=0.019;entryY=-0.004;entryDx=0;entryDy=0;entryPerimeter=0;" edge="1" parent="cC8-oieJ7pAEB4GXrQRQ-1">
          <mxGeometry relative="1" as="geometry">
            <mxPoint x="-85.5" y="200.64" as="sourcePoint" />
            <mxPoint x="44.690000000000055" y="200" as="targetPoint" />
          </mxGeometry>
        </mxCell>
        <mxCell id="cC8-oieJ7pAEB4GXrQRQ-6" value="return" style="verticalAlign=bottom;endArrow=open;dashed=1;endSize=8;shadow=0;strokeWidth=1;exitX=0.05;exitY=0.123;exitDx=0;exitDy=0;exitPerimeter=0;entryX=1;entryY=0.187;entryDx=0;entryDy=0;entryPerimeter=0;" edge="1" parent="cC8-oieJ7pAEB4GXrQRQ-1">
          <mxGeometry relative="1" as="geometry">
            <mxPoint x="-85.5" y="224.55999999999995" as="targetPoint" />
            <mxPoint x="44.99999999999977" y="224.31999999999994" as="sourcePoint" />
          </mxGeometry>
        </mxCell>
        <mxCell id="cC8-oieJ7pAEB4GXrQRQ-4" value="return" style="verticalAlign=bottom;endArrow=open;dashed=1;endSize=8;shadow=0;strokeWidth=1;exitX=0.05;exitY=0.123;exitDx=0;exitDy=0;exitPerimeter=0;entryX=1;entryY=0.187;entryDx=0;entryDy=0;entryPerimeter=0;" edge="1" parent="1" source="cC8-oieJ7pAEB4GXrQRQ-2" target="3nuBFxr9cyL0pnOWT2aG-6">
          <mxGeometry relative="1" as="geometry">
            <mxPoint x="400" y="190" as="targetPoint" />
            <mxPoint x="510" y="189.9999999999999" as="sourcePoint" />
          </mxGeometry>
        </mxCell>
        <mxCell id="cC8-oieJ7pAEB4GXrQRQ-7" value="MariaDb" style="shape=umlLifeline;perimeter=lifelinePerimeter;container=1;collapsible=0;recursiveResize=0;rounded=0;shadow=0;strokeWidth=1;" vertex="1" parent="1">
          <mxGeometry x="634" y="80" width="100" height="300" as="geometry" />
        </mxCell>
        <mxCell id="cC8-oieJ7pAEB4GXrQRQ-8" value="" style="points=[];perimeter=orthogonalPerimeter;rounded=0;shadow=0;strokeWidth=1;" vertex="1" parent="cC8-oieJ7pAEB4GXrQRQ-7">
          <mxGeometry x="45" y="95" width="10" height="160" as="geometry" />
        </mxCell>
        <mxCell id="cC8-oieJ7pAEB4GXrQRQ-9" value="Insert Data" style="verticalAlign=bottom;endArrow=block;shadow=0;strokeWidth=1;entryX=0.019;entryY=-0.004;entryDx=0;entryDy=0;entryPerimeter=0;exitX=1.022;exitY=0.032;exitDx=0;exitDy=0;exitPerimeter=0;" edge="1" parent="1" target="cC8-oieJ7pAEB4GXrQRQ-8" source="cC8-oieJ7pAEB4GXrQRQ-2">
          <mxGeometry relative="1" as="geometry">
            <mxPoint x="549" y="170" as="sourcePoint" />
            <mxPoint x="674" y="170" as="targetPoint" />
          </mxGeometry>
        </mxCell>
        <mxCell id="cC8-oieJ7pAEB4GXrQRQ-10" value="Insert Data" style="verticalAlign=bottom;endArrow=block;shadow=0;strokeWidth=1;entryX=-0.131;entryY=0.684;entryDx=0;entryDy=0;entryPerimeter=0;exitX=1.019;exitY=0.719;exitDx=0;exitDy=0;exitPerimeter=0;" edge="1" parent="1" source="cC8-oieJ7pAEB4GXrQRQ-2" target="cC8-oieJ7pAEB4GXrQRQ-8">
          <mxGeometry relative="1" as="geometry">
            <mxPoint x="548.5" y="280.64" as="sourcePoint" />
            <mxPoint x="678.69" y="280" as="targetPoint" />
          </mxGeometry>
        </mxCell>
        <mxCell id="cC8-oieJ7pAEB4GXrQRQ-11" value="return" style="verticalAlign=bottom;endArrow=open;dashed=1;endSize=8;shadow=0;strokeWidth=1;exitX=0.023;exitY=0.781;exitDx=0;exitDy=0;exitPerimeter=0;entryX=0.994;entryY=0.815;entryDx=0;entryDy=0;entryPerimeter=0;" edge="1" parent="1" source="cC8-oieJ7pAEB4GXrQRQ-8" target="cC8-oieJ7pAEB4GXrQRQ-2">
          <mxGeometry relative="1" as="geometry">
            <mxPoint x="548.5" y="300.55999999999995" as="targetPoint" />
            <mxPoint x="678.9999999999998" y="300.31999999999994" as="sourcePoint" />
          </mxGeometry>
        </mxCell>
      </root>
    </mxGraphModel>
  </diagram>
</mxfile>
